<svg xmlns="http://www.w3.org/2000/svg" viewBox="0 0 15 15">
  <title>gfm-blog-abstract-bg</title>
  <polygon points="2.02 0 1.31 0 0 1.31 0 2.02 2.02 0" style="fill: #040000"/>
  <polygon points="7.02 0 6.31 0 0 6.31 0 7.02 7.02 0" style="fill: #040000"/>
  <polygon points="12.02 0 11.31 0 0 11.31 0 12.02 12.02 0" style="fill: #040000"/>
  <polygon points="15 2.02 15 1.31 1.31 15 2.02 15 15 2.02" style="fill: #040000"/>
  <polygon points="15 7.02 15 6.31 6.32 15 7.02 15 15 7.02" style="fill: #040000"/>
  <polygon points="15 12.02 15 11.31 11.31 15 12.02 15 15 12.02" style="fill: #040000"/>
</svg>
