<svg id="图层_1" data-name="图层 1" xmlns="http://www.w3.org/2000/svg" xmlns:xlink="http://www.w3.org/1999/xlink" viewBox="0 0 18 18">
  <defs>
    <pattern id="cross_gain_2x6" data-name="cross gain_2x6" width="18" height="18" patternUnits="userSpaceOnUse" viewBox="0 0 18 18">
      <rect width="18" height="18" style="fill: none"/>
      <polygon points="0 2.42 2.42 0 0 0 0 2.42" style="fill: #727171"/>
      <polygon points="8.41 0 5.59 0 0 5.59 0 8.41 8.41 0" style="fill: #727171"/>
      <polygon points="14.41 0 11.59 0 0 11.59 0 14.41 14.41 0" style="fill: #727171"/>
      <polygon points="18 8.41 18 5.59 5.59 18 8.42 18 18 8.41" style="fill: #727171"/>
      <polygon points="18 14.41 18 11.59 11.59 18 14.41 18 18 14.41" style="fill: #727171"/>
      <polygon points="18 17.59 17.59 18 18 18 18 17.59" style="fill: #727171"/>
      <polygon points="18 0 17.59 0 0 17.59 0 18 2.42 18 18 2.42 18 0" style="fill: #727171"/>
    </pattern>
  </defs>
  <title>gfm-blog-h2-bg-1</title>
  <rect id="h2-divider" x="-481.54" y="0.02" width="1099" height="18" style="fill: url(#cross_gain_2x6)"/>
</svg>
